<svg xmlns="http://www.w3.org/2000/svg" width="32" height="32" id="delivery"><path fill-rule="evenodd" d="M15.986-.008a.546.546 0 0 0-.205.041L.336 6.451A.546.546 0 0 0 0 6.955v4.455a.546.546 0 0 0 .545.545H3.04v19.51a.546.546 0 0 0 .545.545h24.828a.546.546 0 0 0 .545-.545v-19.51h2.496A.546.546 0 0 0 32 11.41V6.955a.546.546 0 0 0-.336-.504L16.2.033a.546.546 0 0 0-.213-.04zm.004 1.135 14.918 6.191v3.547h-2.494a.546.546 0 0 0-.545.545v19.51h-1.912V15.498a.5.5 0 0 0-.5-.5H6.543a.5.5 0 0 0-.5.5V30.92H4.131V11.41a.546.546 0 0 0-.545-.545H1.092V7.318L15.99 1.127zM6.5 10.955a.5.5 0 0 0-.5.5v2a.5.5 0 0 0 .5.5h5a.5.5 0 0 0 .5-.5v-2a.5.5 0 0 0-.5-.5h-5zm7 0a.5.5 0 0 0-.5.5v2a.5.5 0 0 0 .5.5h5a.5.5 0 0 0 .5-.5v-2a.5.5 0 0 0-.5-.5h-5zm7 0a.5.5 0 0 0-.5.5v2a.5.5 0 0 0 .5.5h5a.5.5 0 0 0 .5-.5v-2a.5.5 0 0 0-.5-.5h-5zm-13.5 1h4v1H7v-1zm7 0h4v1h-4v-1zm7 0h4v1h-4v-1zM7.043 15.998h17.914v14.914H22v-4.457a.5.5 0 0 0-.5-.5h-5a.5.5 0 0 0-.5.5v4.457h-1v-9.457a.5.5 0 0 0-.5-.5h-5a.5.5 0 0 0-.5.5v9.457H7.043V15.998zM10 21.955h4v4h-4v-4zm0 5h4v3.957h-4v-3.957zm7 0h4v3.957h-4v-3.957z" color="#000" font-family="sans-serif" font-weight="400" overflow="visible" style="line-height:normal;text-indent:0;text-align:start;text-decoration-line:none;text-decoration-style:solid;text-decoration-color:#000;text-transform:none;block-progression:tb;white-space:normal;isolation:auto;mix-blend-mode:normal;solid-color:#000;solid-opacity:1"></path></svg>